<?xml version="1.0" encoding="utf-8"?>
<svg xmlns="http://www.w3.org/2000/svg" height="512pt" version="1.1" viewBox="0 0 512 512" width="512pt">
<path d="M 0.00 0.00 L 512.00 0.00 L 512.00 512.00 L 0.00 512.00 L 0.00 0.00 Z" fill="transparent" opacity="1.00" stroke="transparent" stroke-width="0.25"/>
<path d="M 256.40 75.44 C 258.79 73.96 261.71 74.21 264.41 74.08 C 264.58 77.88 263.46 82.04 265.56 85.49 C 268.74 90.95 272.89 95.77 276.05 101.25 C 291.46 93.11 309.91 90.99 326.69 95.84 C 326.59 97.20 326.98 98.82 325.93 99.92 C 322.96 103.69 319.48 107.07 316.92 111.15 C 335.52 114.92 353.30 122.42 369.15 132.82 C 371.08 133.92 372.29 136.67 370.54 138.49 C 367.51 141.66 363.21 143.17 359.34 145.05 C 366.39 149.29 373.10 154.30 378.27 160.76 C 385.15 169.31 390.93 178.87 394.65 189.22 C 395.97 192.17 395.34 195.80 393.09 198.12 C 391.28 200.28 388.32 200.63 385.81 201.50 C 397.51 216.39 406.15 233.88 409.64 252.55 C 410.55 256.09 409.31 260.16 405.89 261.83 C 400.59 264.13 394.75 264.78 389.07 265.53 C 394.77 282.29 397.57 300.27 395.02 317.89 C 393.64 324.86 392.03 332.02 388.17 338.09 C 387.24 340.19 384.76 339.59 382.97 339.40 C 385.84 337.42 388.27 334.85 389.61 331.57 C 388.23 332.24 386.87 332.94 385.49 333.57 C 386.70 329.54 388.26 325.59 388.92 321.41 C 392.30 304.80 389.74 287.65 385.20 271.52 C 382.56 261.84 379.05 252.14 372.90 244.09 C 369.94 240.12 366.05 237.02 362.59 233.52 C 368.72 235.16 373.48 239.78 377.85 244.15 C 382.51 248.72 385.26 254.76 389.36 259.75 C 394.70 260.02 399.87 258.27 404.88 256.63 C 404.34 252.04 403.09 247.58 401.41 243.29 C 397.19 230.24 391.42 217.52 383.13 206.53 C 378.74 200.66 372.81 196.02 366.24 192.82 C 360.44 190.00 353.95 189.29 347.90 187.21 C 353.65 186.02 359.75 185.68 365.39 187.57 C 370.18 188.96 374.40 191.67 378.54 194.38 C 381.93 196.71 386.22 195.49 389.96 194.92 C 389.89 187.22 385.08 180.84 381.50 174.39 C 376.71 166.88 371.48 159.28 363.96 154.25 C 357.55 148.90 349.49 146.50 341.46 144.85 C 343.75 143.51 346.26 142.59 348.93 142.47 C 354.88 142.03 360.11 138.87 365.25 136.13 C 356.57 130.92 347.38 126.60 337.92 123.01 C 328.30 119.13 318.25 116.12 307.89 115.16 C 309.70 108.49 314.99 103.84 319.37 98.83 C 305.51 96.92 290.88 98.67 278.60 105.67 C 281.81 112.13 283.93 119.61 281.82 126.76 C 280.48 132.51 276.46 136.98 272.70 141.31 C 277.83 141.39 283.02 141.06 288.08 142.06 C 291.93 142.80 295.71 143.90 299.52 144.82 C 303.71 137.15 312.19 132.00 321.03 132.73 C 333.50 133.36 344.24 145.49 342.39 158.05 C 342.18 164.94 337.60 170.33 332.91 174.88 C 340.68 186.89 346.95 199.97 350.29 213.93 C 352.00 220.43 351.26 227.76 355.67 233.31 C 362.80 245.46 366.88 259.90 364.65 274.01 C 362.67 287.23 355.48 298.96 347.40 309.34 C 346.19 310.59 345.08 312.76 343.00 312.30 C 335.19 311.23 328.27 307.18 320.81 304.93 C 317.65 313.54 313.06 321.65 306.90 328.48 C 299.46 325.75 293.15 320.87 287.03 315.97 C 285.82 314.94 283.55 313.31 282.59 315.51 C 277.49 322.94 271.30 329.69 264.05 335.06 C 262.93 336.31 261.52 335.23 260.41 334.59 C 252.52 329.19 246.09 321.98 240.12 314.58 C 233.45 320.71 226.49 326.73 218.03 330.24 C 214.47 326.79 211.15 323.11 207.99 319.30 C 205.29 314.58 202.61 309.84 200.01 305.06 C 192.08 309.71 184.51 315.56 175.27 317.32 C 164.55 307.24 154.31 295.84 149.46 281.69 C 144.48 265.93 147.50 248.44 155.50 234.21 C 157.29 231.33 159.80 228.63 159.84 225.05 C 161.32 207.18 168.83 190.50 177.97 175.31 C 172.44 171.14 167.57 165.24 167.33 157.99 C 165.94 146.78 174.17 135.52 185.19 133.23 C 192.65 131.51 201.28 133.70 206.25 139.72 C 207.84 141.51 209.15 143.57 211.00 145.13 C 214.55 144.43 217.94 143.07 221.49 142.30 C 226.01 141.18 230.71 141.37 235.33 141.15 C 231.23 136.62 226.90 131.92 225.25 125.87 C 222.97 118.62 225.02 110.99 227.67 104.15 C 221.37 101.40 214.76 99.25 207.92 98.48 C 202.25 97.90 196.56 98.27 190.90 98.63 C 195.23 103.58 200.39 108.22 202.24 114.78 C 182.45 118.47 163.19 125.50 146.05 136.11 C 151.15 139.40 156.83 142.03 162.98 142.42 C 165.31 142.45 167.30 143.67 169.14 144.98 C 161.27 146.66 153.30 148.99 147.04 154.29 C 139.76 159.57 134.34 166.88 129.53 174.37 C 126.02 179.90 122.53 185.67 120.92 192.07 C 120.31 195.45 124.59 195.91 127.00 195.80 C 131.03 196.13 134.02 193.06 137.30 191.28 C 145.00 186.60 154.51 184.98 163.26 187.27 C 157.38 189.03 151.25 190.07 145.59 192.56 C 138.63 195.65 132.52 200.60 127.95 206.70 C 120.25 216.98 114.78 228.77 110.71 240.91 C 108.97 245.75 106.86 250.63 106.62 255.82 C 108.18 257.58 110.63 257.92 112.77 258.55 C 115.91 259.23 119.17 260.10 122.40 259.54 C 124.26 257.27 125.60 254.65 127.23 252.23 C 131.34 245.82 136.75 240.23 143.12 236.07 C 144.99 234.82 147.08 233.87 149.30 233.44 C 137.42 242.12 130.22 255.62 126.64 269.64 C 121.26 286.97 118.77 305.74 122.83 323.63 C 123.46 327.49 124.92 331.14 126.62 334.66 C 128.71 333.70 130.82 332.79 132.92 331.84 C 132.09 332.88 131.30 333.95 130.50 335.01 C 131.00 335.83 131.49 336.65 131.98 337.47 C 129.43 338.48 126.52 340.71 123.76 339.22 C 120.42 335.38 119.33 330.22 117.78 325.51 C 112.80 305.69 115.83 284.77 121.96 265.56 C 116.15 264.58 110.04 264.10 104.72 261.38 C 101.72 259.80 100.74 256.25 101.42 253.10 C 104.90 234.23 113.45 216.50 125.31 201.47 C 121.17 200.79 116.47 198.72 115.75 194.06 C 115.36 189.28 118.02 184.97 119.82 180.73 C 127.07 166.28 137.31 152.47 152.12 145.13 C 147.90 143.05 142.92 141.68 139.93 137.82 C 138.40 135.22 140.91 133.07 142.98 131.89 C 158.32 122.09 175.39 114.88 193.26 111.30 C 191.05 105.65 185.11 102.58 183.00 96.89 C 188.41 93.80 194.87 93.58 200.95 93.37 C 210.97 92.99 220.80 95.78 229.88 99.83 C 231.28 99.37 231.77 97.71 232.70 96.68 C 238.75 87.81 247.31 80.98 256.40 75.44 Z" fill="#2f0321" opacity="1.00" stroke="#2f0321" stroke-width="0.25"/>
<path d="M 245.02 91.07 C 248.76 86.48 253.90 83.37 258.75 80.11 C 259.33 82.77 259.76 85.52 261.05 87.95 C 266.65 97.98 275.81 106.32 278.14 117.94 C 279.67 125.09 276.20 132.27 271.18 137.20 C 267.56 140.64 263.54 143.71 259.07 145.95 C 257.31 146.88 255.22 146.93 253.32 146.45 C 244.15 143.57 235.33 137.86 230.88 129.08 C 227.79 123.33 227.79 116.24 230.30 110.27 C 232.71 104.55 236.28 99.31 240.77 95.01 C 241.07 97.01 241.37 99.01 241.68 101.01 C 247.19 100.60 248.08 94.65 248.14 90.21 C 247.09 90.48 246.05 90.76 245.02 91.07 Z" fill="#fe8957" opacity="1.00" stroke="#fe8957" stroke-width="0.25"/>
<path d="M 245.02 91.07 C 246.05 90.76 247.09 90.48 248.14 90.21 C 248.08 94.65 247.19 100.60 241.68 101.01 C 241.37 99.01 241.07 97.01 240.77 95.01 C 242.18 93.70 243.50 92.27 245.02 91.07 Z" fill="#ffe3d4" opacity="1.00" stroke="#ffe3d4" stroke-width="0.25"/>
<path d="M 190.90 98.63 C 196.56 98.27 202.25 97.90 207.92 98.48 C 214.76 99.25 221.37 101.40 227.67 104.15 C 225.02 110.99 222.97 118.62 225.25 125.87 C 226.90 131.92 231.23 136.62 235.33 141.15 C 230.71 141.37 226.01 141.18 221.49 142.30 C 217.94 143.07 214.55 144.43 211.00 145.13 C 209.15 143.57 207.84 141.51 206.25 139.72 C 201.28 133.70 192.65 131.51 185.19 133.23 C 174.17 135.52 165.94 146.78 167.33 157.99 C 167.57 165.24 172.44 171.14 177.97 175.31 C 168.83 190.50 161.32 207.18 159.84 225.05 C 159.80 228.63 157.29 231.33 155.50 234.21 C 153.44 233.91 151.37 233.61 149.30 233.44 C 147.08 233.87 144.99 234.82 143.12 236.07 C 136.75 240.23 131.34 245.82 127.23 252.23 C 125.60 254.65 124.26 257.27 122.40 259.54 C 119.17 260.10 115.91 259.23 112.77 258.55 C 110.63 257.92 108.18 257.58 106.62 255.82 C 106.86 250.63 108.97 245.75 110.71 240.91 C 115.29 235.88 118.28 229.72 122.10 224.13 C 125.36 218.89 129.62 214.27 132.13 208.58 C 130.74 207.95 129.35 207.32 127.95 206.70 C 132.52 200.60 138.63 195.65 145.59 192.56 C 151.25 190.07 157.38 189.03 163.26 187.27 C 154.51 184.98 145.00 186.60 137.30 191.28 C 134.02 193.06 131.03 196.13 127.00 195.80 C 124.59 195.91 120.31 195.45 120.92 192.07 C 122.53 185.67 126.02 179.90 129.53 174.37 C 133.83 172.25 136.53 168.14 140.04 165.03 C 142.47 162.60 145.48 160.63 147.34 157.67 C 147.30 156.54 147.20 155.41 147.04 154.29 C 153.30 148.99 161.27 146.66 169.14 144.98 C 167.30 143.67 165.31 142.45 162.98 142.42 C 156.83 142.03 151.15 139.40 146.05 136.11 C 163.19 125.50 182.45 118.47 202.24 114.78 C 200.39 108.22 195.23 103.58 190.90 98.63 Z" fill="#fe8856" opacity="1.00" stroke="#fe8856" stroke-width="0.25"/>
<path d="M 278.60 105.67 C 290.88 98.67 305.51 96.92 319.37 98.83 C 314.99 103.84 309.70 108.49 307.89 115.16 C 318.25 116.12 328.30 119.13 337.92 123.01 C 347.38 126.60 356.57 130.92 365.25 136.13 C 360.11 138.87 354.88 142.03 348.93 142.47 C 346.26 142.59 343.75 143.51 341.46 144.85 C 349.49 146.50 357.55 148.90 363.96 154.25 C 362.44 158.58 366.80 161.05 369.41 163.62 C 373.53 167.11 376.54 171.94 381.50 174.39 C 385.08 180.84 389.89 187.22 389.96 194.92 C 386.22 195.49 381.93 196.71 378.54 194.38 C 374.40 191.67 370.18 188.96 365.39 187.57 C 359.75 185.68 353.65 186.02 347.90 187.21 C 353.95 189.29 360.44 190.00 366.24 192.82 C 372.81 196.02 378.74 200.66 383.13 206.53 C 381.84 207.39 380.55 208.26 379.27 209.14 C 384.21 217.31 390.16 224.82 394.81 233.19 C 396.98 236.57 398.20 240.68 401.41 243.29 C 403.09 247.58 404.34 252.04 404.88 256.63 C 399.87 258.27 394.70 260.02 389.36 259.75 C 385.26 254.76 382.51 248.72 377.85 244.15 C 373.48 239.78 368.72 235.16 362.59 233.52 C 360.28 233.36 357.97 233.35 355.67 233.31 C 351.26 227.76 352.00 220.43 350.29 213.93 C 346.95 199.97 340.68 186.89 332.91 174.88 C 337.60 170.33 342.18 164.94 342.39 158.05 C 344.24 145.49 333.50 133.36 321.03 132.73 C 312.19 132.00 303.71 137.15 299.52 144.82 C 295.71 143.90 291.93 142.80 288.08 142.06 C 283.02 141.06 277.83 141.39 272.70 141.31 C 276.46 136.98 280.48 132.51 281.82 126.76 C 283.93 119.61 281.81 112.13 278.60 105.67 Z" fill="#fe8856" opacity="1.00" stroke="#fe8856" stroke-width="0.25"/>
<path d="M 238.90 106.17 C 239.32 104.30 241.37 104.40 242.83 103.92 C 243.19 105.77 243.90 107.66 243.55 109.58 C 242.82 110.82 241.41 111.38 240.30 112.20 C 239.35 110.36 237.93 108.32 238.90 106.17 Z" fill="#ffe6d5" opacity="1.00" stroke="#ffe6d5" stroke-width="0.25"/>
<path d="M 240.57 118.46 C 240.83 116.68 240.34 114.01 243.03 114.49 C 244.12 115.41 244.48 116.57 244.11 117.96 C 243.23 118.09 241.46 118.34 240.57 118.46 Z" fill="#ffd4b3" opacity="1.00" stroke="#ffd4b3" stroke-width="0.25"/>
<path d="M 180.97 140.03 C 187.18 136.11 195.94 136.61 201.45 141.54 C 204.26 143.96 206.02 147.28 207.73 150.51 C 218.10 145.79 229.84 144.05 241.10 145.92 C 246.23 146.75 250.88 149.22 255.91 150.36 C 260.16 149.12 264.18 147.12 268.54 146.23 C 279.88 143.61 291.60 145.96 302.32 149.95 C 304.23 145.12 307.78 140.89 312.56 138.72 C 318.92 136.13 326.82 137.35 331.79 142.21 C 337.32 147.17 339.30 155.63 336.40 162.50 C 335.22 166.03 332.42 168.55 329.80 171.03 C 328.10 169.24 326.44 167.42 324.74 165.63 C 327.49 163.09 330.61 160.08 330.45 156.02 C 331.08 149.13 323.64 143.15 317.02 144.89 C 313.10 145.73 310.89 149.38 308.11 151.92 C 309.17 152.66 310.25 153.40 311.30 154.17 C 313.57 155.84 315.73 157.67 317.76 159.62 C 319.44 163.85 323.04 166.81 325.50 170.54 C 336.10 186.03 344.54 203.36 347.75 221.97 C 349.72 233.98 348.63 247.22 341.35 257.37 C 333.17 268.18 319.79 272.96 307.18 276.39 C 276.64 284.23 244.27 284.82 213.43 278.30 C 198.91 274.84 183.34 270.50 173.00 259.00 C 164.39 249.69 162.29 236.15 163.91 223.95 C 167.07 200.90 178.28 179.52 192.84 161.63 C 194.63 158.86 196.55 156.10 199.26 154.14 C 200.20 153.40 201.19 152.73 202.17 152.03 C 198.82 149.15 195.97 144.68 191.03 144.68 C 184.88 144.12 178.87 149.81 179.46 156.02 C 179.28 160.34 182.48 163.75 185.82 166.01 C 184.44 167.84 183.13 169.71 181.83 171.60 C 176.39 168.87 172.09 163.29 172.19 157.03 C 171.54 150.29 175.13 143.42 180.97 140.03 Z" fill="#fefefe" opacity="1.00" stroke="#fefefe" stroke-width="0.25"/>
<path d="M 182.59 156.01 C 182.19 151.48 186.54 147.51 190.95 147.75 C 194.67 148.29 197.06 151.42 199.26 154.14 C 196.55 156.10 194.63 158.86 192.84 161.63 C 192.87 161.08 192.93 159.98 192.96 159.43 C 190.93 160.80 188.99 162.30 187.13 163.90 C 185.22 161.57 182.57 159.29 182.59 156.01 Z" fill="#fa7d89" opacity="1.00" stroke="#fa7d89" stroke-width="0.25"/>
<path d="M 311.30 154.17 C 312.69 151.72 314.34 149.05 317.18 148.14 C 322.09 146.16 327.98 150.80 327.40 156.02 C 327.59 158.88 325.48 161.01 323.86 163.07 C 321.87 161.84 319.86 160.66 317.76 159.62 C 315.73 157.67 313.57 155.84 311.30 154.17 Z" fill="#fa7c88" opacity="1.00" stroke="#fa7c88" stroke-width="0.25"/>
<path d="M 129.53 174.37 C 134.34 166.88 139.76 159.57 147.04 154.29 C 147.20 155.41 147.30 156.54 147.34 157.67 C 145.48 160.63 142.47 162.60 140.04 165.03 C 136.53 168.14 133.83 172.25 129.53 174.37 Z" fill="#ffe5de" opacity="1.00" stroke="#ffe5de" stroke-width="0.25"/>
<path d="M 369.41 163.62 C 366.80 161.05 362.44 158.58 363.96 154.25 C 371.48 159.28 376.71 166.88 381.50 174.39 C 376.54 171.94 373.53 167.11 369.41 163.62 Z" fill="#ffe7db" opacity="1.00" stroke="#ffe7db" stroke-width="0.25"/>
<path d="M 207.40 194.33 C 209.22 190.96 212.17 187.80 216.06 187.00 C 218.99 186.17 222.52 187.50 223.95 190.24 C 225.92 194.30 222.62 199.83 218.06 199.86 C 214.37 200.01 211.82 202.86 208.90 204.72 C 205.44 202.42 205.67 197.65 207.40 194.33 Z" fill="#2e0328" opacity="1.00" stroke="#2e0328" stroke-width="0.25"/>
<path d="M 292.26 187.09 C 300.52 185.35 309.45 197.05 303.73 204.07 C 301.54 204.84 300.07 202.60 298.43 201.58 C 295.72 199.09 290.97 200.62 288.93 197.16 C 286.05 193.84 287.77 187.84 292.26 187.09 Z" fill="#300229" opacity="1.00" stroke="#300229" stroke-width="0.25"/>
<path d="M 238.96 200.03 C 247.25 196.65 256.52 196.27 265.29 197.67 C 269.02 198.44 272.91 199.35 275.89 201.88 C 272.27 209.00 264.86 213.24 257.48 215.57 C 257.46 218.06 257.40 220.55 257.40 223.03 C 256.97 227.12 260.66 230.30 263.99 231.94 C 272.21 234.56 281.92 230.74 286.40 223.40 C 289.78 218.45 287.18 212.81 285.75 207.73 C 289.93 211.10 291.88 217.14 290.00 222.24 C 287.94 227.68 283.29 232.02 277.79 233.86 C 275.85 234.61 273.76 234.93 271.90 235.86 C 270.06 238.06 268.52 240.88 265.52 241.65 C 262.98 242.81 260.25 241.86 257.68 241.36 C 254.17 240.45 250.67 243.19 247.18 241.79 C 243.85 241.20 242.50 237.85 240.48 235.60 C 233.50 234.08 226.16 230.75 222.91 223.97 C 220.27 218.69 221.44 210.96 226.71 207.80 C 225.12 212.09 223.02 216.70 224.72 221.32 C 228.01 228.94 236.80 233.52 244.95 232.68 C 249.14 232.44 252.78 229.42 254.63 225.80 C 255.00 222.39 254.75 218.95 254.71 215.53 C 248.24 213.32 241.71 210.00 237.74 204.24 C 236.70 202.86 237.02 200.33 238.96 200.03 Z" fill="#32021e" opacity="1.00" stroke="#32021e" stroke-width="0.25"/>
<path d="M 246.05 200.81 C 253.06 200.03 260.13 200.01 267.13 200.86 C 267.33 201.44 267.72 202.61 267.92 203.20 C 259.96 202.42 251.97 202.95 244.01 203.21 C 244.68 202.41 245.37 201.61 246.05 200.81 Z" fill="#db6072" opacity="1.00" stroke="#db6072" stroke-width="0.25"/>
<path d="M 240.76 202.20 C 242.52 201.75 244.29 201.29 246.05 200.81 C 245.37 201.61 244.68 202.41 244.01 203.21 C 251.97 202.95 259.96 202.42 267.92 203.20 C 267.72 202.61 267.33 201.44 267.13 200.86 C 268.60 201.61 270.09 202.34 271.58 203.07 C 268.96 207.32 263.89 208.83 259.61 210.82 C 255.49 212.91 251.20 210.44 247.51 208.63 C 244.79 207.09 241.03 205.85 240.76 202.20 Z" fill="#8d1a2c" opacity="1.00" stroke="#8d1a2c" stroke-width="0.25"/>
<path d="M 110.71 240.91 C 114.78 228.77 120.25 216.98 127.95 206.70 C 129.35 207.32 130.74 207.95 132.13 208.58 C 129.62 214.27 125.36 218.89 122.10 224.13 C 118.28 229.72 115.29 235.88 110.71 240.91 Z" fill="#fee1d5" opacity="1.00" stroke="#fee1d5" stroke-width="0.25"/>
<path d="M 379.27 209.14 C 380.55 208.26 381.84 207.39 383.13 206.53 C 391.42 217.52 397.19 230.24 401.41 243.29 C 398.20 240.68 396.98 236.57 394.81 233.19 C 390.16 224.82 384.21 217.31 379.27 209.14 Z" fill="#fee2d7" opacity="1.00" stroke="#fee2d7" stroke-width="0.25"/>
<path d="M 190.38 208.60 C 195.64 207.86 201.53 207.67 206.06 210.91 C 209.39 212.87 211.92 216.86 210.83 220.81 C 209.46 226.23 204.17 229.51 199.22 231.27 C 191.54 233.88 181.38 232.22 176.98 224.82 C 174.07 216.41 183.14 210.00 190.38 208.60 Z" fill="#fd808a" opacity="1.00" stroke="#fd808a" stroke-width="0.25"/>
<path d="M 310.50 208.73 C 316.61 207.62 323.39 207.85 328.75 211.32 C 332.20 213.43 335.71 216.70 335.73 221.06 C 336.13 225.24 332.78 228.60 329.32 230.34 C 320.89 234.33 309.94 232.29 303.62 225.40 C 300.51 222.06 300.12 215.86 303.73 212.74 C 305.66 210.95 307.96 209.49 310.50 208.73 Z" fill="#fe808b" opacity="1.00" stroke="#fe808b" stroke-width="0.25"/>
<path d="M 245.40 235.78 C 249.15 234.73 252.68 233.05 256.04 231.09 C 259.80 233.10 263.69 234.88 267.74 236.24 C 266.54 237.53 265.41 239.18 263.55 239.51 C 261.49 239.87 259.53 238.86 257.57 238.41 C 255.33 237.60 253.13 239.01 250.93 239.32 C 248.89 239.93 247.12 238.38 245.35 237.65 C 245.36 237.18 245.39 236.24 245.40 235.78 Z" fill="#f98191" opacity="1.00" stroke="#f98191" stroke-width="0.25"/>
<path d="M 355.67 233.31 C 357.97 233.35 360.28 233.36 362.59 233.52 C 366.05 237.02 369.94 240.12 372.90 244.09 C 379.05 252.14 382.56 261.84 385.20 271.52 C 383.51 270.92 381.81 270.32 380.12 269.74 C 383.80 282.54 387.18 295.57 387.70 308.94 C 387.69 313.13 387.95 317.32 388.92 321.41 C 388.26 325.59 386.70 329.54 385.49 333.57 C 383.68 333.91 381.86 333.51 380.25 332.70 C 374.80 330.17 369.43 327.47 364.05 324.82 C 365.96 317.05 366.29 307.89 360.22 301.79 C 360.88 308.08 362.53 314.51 360.81 320.77 C 358.64 329.53 352.37 336.46 345.86 342.38 C 342.40 341.27 338.95 340.14 335.49 339.03 C 337.95 332.92 339.73 325.98 336.64 319.74 C 335.54 328.49 332.65 337.13 326.97 344.01 C 320.11 352.65 310.74 358.90 300.89 363.63 C 292.34 356.82 286.23 347.71 280.33 338.65 C 275.95 350.88 267.21 361.33 256.20 368.17 C 245.76 360.89 237.63 350.62 232.95 338.79 C 227.77 346.81 222.39 354.83 215.36 361.36 C 214.03 362.55 212.24 364.01 210.43 362.79 C 197.37 357.29 185.41 347.77 179.34 334.71 C 177.05 330.01 176.52 324.75 175.35 319.72 C 172.36 325.98 174.08 333.01 176.74 339.05 C 173.16 340.19 169.65 341.65 165.96 342.40 C 158.81 337.76 153.35 330.39 150.73 322.28 C 148.49 315.59 150.10 308.56 150.67 301.75 C 144.85 308.02 145.10 317.25 147.06 325.04 C 142.36 327.34 137.63 329.58 132.92 331.84 C 130.82 332.79 128.71 333.70 126.62 334.66 C 124.92 331.14 123.46 327.49 122.83 323.63 C 123.38 319.86 123.62 316.06 123.51 312.26 C 123.26 297.98 127.06 284.07 130.97 270.46 C 129.52 270.19 128.08 269.91 126.64 269.64 C 130.22 255.62 137.42 242.12 149.30 233.44 C 151.37 233.61 153.44 233.91 155.50 234.21 C 147.50 248.44 144.48 265.93 149.46 281.69 C 154.31 295.84 164.55 307.24 175.27 317.32 C 177.84 318.70 180.90 319.33 183.67 318.15 C 189.01 316.14 193.66 312.70 198.76 310.19 C 201.16 313.84 203.98 317.33 207.99 319.30 C 211.15 323.11 214.47 326.79 218.03 330.24 C 226.49 326.73 233.45 320.71 240.12 314.58 C 246.09 321.98 252.52 329.19 260.41 334.59 C 261.52 335.23 262.93 336.31 264.05 335.06 C 271.30 329.69 277.49 322.94 282.59 315.51 C 283.55 313.31 285.82 314.94 287.03 315.97 C 293.15 320.87 299.46 325.75 306.90 328.48 C 313.06 321.65 317.65 313.54 320.81 304.93 C 328.27 307.18 335.19 311.23 343.00 312.30 C 345.08 312.76 346.19 310.59 347.40 309.34 C 355.48 298.96 362.67 287.23 364.65 274.01 C 366.88 259.90 362.80 245.46 355.67 233.31 Z" fill="#adc6ca" opacity="1.00" stroke="#adc6ca" stroke-width="0.25"/>
<path d="M 151.52 265.01 C 151.74 255.18 154.02 245.07 159.53 236.81 C 160.72 244.46 162.86 252.14 167.64 258.39 C 175.01 268.35 186.63 274.02 198.09 277.94 C 227.94 287.22 260.00 288.51 290.77 283.60 C 303.86 281.09 317.13 278.28 329.00 271.99 C 336.91 267.97 343.82 261.74 347.81 253.73 C 350.66 248.49 351.52 242.52 352.49 236.72 C 359.70 248.70 362.51 263.57 359.27 277.25 C 356.19 288.46 350.13 298.58 342.96 307.64 C 335.13 306.04 327.85 302.60 320.76 299.01 C 320.71 296.52 320.71 293.97 319.77 291.63 C 317.85 303.11 312.63 313.82 305.81 323.17 C 297.92 319.48 291.42 313.51 284.76 308.02 C 284.78 306.26 284.81 304.50 284.80 302.75 C 279.80 313.69 271.80 322.87 262.89 330.81 C 252.97 323.94 244.93 314.52 239.34 303.85 C 239.34 305.57 239.39 307.30 239.43 309.03 C 232.79 314.77 226.66 321.58 218.38 324.97 C 213.30 318.43 208.07 311.84 204.82 304.15 C 203.30 300.69 202.63 296.93 201.00 293.52 C 200.73 295.56 200.60 297.61 200.48 299.67 C 192.72 303.88 185.55 309.46 177.05 312.12 C 173.57 309.98 171.05 306.65 168.30 303.68 C 158.92 293.02 151.38 279.57 151.52 265.01 Z" fill="#fe8856" opacity="1.00" stroke="#fe8856" stroke-width="0.25"/>
<path d="M 122.83 323.63 C 118.77 305.74 121.26 286.97 126.64 269.64 C 128.08 269.91 129.52 270.19 130.97 270.46 C 127.06 284.07 123.26 297.98 123.51 312.26 C 123.62 316.06 123.38 319.86 122.83 323.63 Z" fill="#fbfcfe" opacity="1.00" stroke="#fbfcfe" stroke-width="0.25"/>
<path d="M 380.12 269.74 C 381.81 270.32 383.51 270.92 385.20 271.52 C 389.74 287.65 392.30 304.80 388.92 321.41 C 387.95 317.32 387.69 313.13 387.70 308.94 C 387.18 295.57 383.80 282.54 380.12 269.74 Z" fill="#fcfcfe" opacity="1.00" stroke="#fcfcfe" stroke-width="0.25"/>
<path d="M 147.06 325.04 C 145.10 317.25 144.85 308.02 150.67 301.75 C 150.10 308.56 148.49 315.59 150.73 322.28 C 153.35 330.39 158.81 337.76 165.96 342.40 C 169.65 341.65 173.16 340.19 176.74 339.05 C 174.08 333.01 172.36 325.98 175.35 319.72 C 176.52 324.75 177.05 330.01 179.34 334.71 C 185.41 347.77 197.37 357.29 210.43 362.79 C 212.24 364.01 214.03 362.55 215.36 361.36 C 222.39 354.83 227.77 346.81 232.95 338.79 C 237.63 350.62 245.76 360.89 256.20 368.17 C 267.21 361.33 275.95 350.88 280.33 338.65 C 286.23 347.71 292.34 356.82 300.89 363.63 C 310.74 358.90 320.11 352.65 326.97 344.01 C 332.65 337.13 335.54 328.49 336.64 319.74 C 339.73 325.98 337.95 332.92 335.49 339.03 C 338.95 340.14 342.40 341.27 345.86 342.38 C 352.37 336.46 358.64 329.53 360.81 320.77 C 362.53 314.51 360.88 308.08 360.22 301.79 C 366.29 307.89 365.96 317.05 364.05 324.82 C 369.43 327.47 374.80 330.17 380.25 332.70 C 381.86 333.51 383.68 333.91 385.49 333.57 C 386.87 332.94 388.23 332.24 389.61 331.57 C 388.27 334.85 385.84 337.42 382.97 339.40 C 376.07 335.74 368.83 332.77 361.87 329.25 C 360.72 331.17 359.54 333.06 358.32 334.93 C 363.96 344.73 367.38 355.71 368.98 366.88 C 372.05 364.99 374.89 362.55 376.42 359.21 C 378.95 354.07 380.33 347.83 385.47 344.52 C 389.74 342.15 394.62 339.72 399.63 341.04 C 399.85 343.05 400.05 345.06 400.25 347.07 C 403.36 346.26 406.49 345.41 409.73 345.24 C 409.73 351.66 409.40 358.87 404.93 363.94 C 400.06 369.60 392.09 370.73 386.60 375.61 C 381.39 380.31 375.09 383.73 368.23 385.27 C 366.67 391.66 364.31 397.97 360.37 403.29 C 358.93 405.23 357.29 407.01 355.58 408.71 C 347.82 416.32 337.04 421.44 326.02 420.74 C 323.75 420.64 321.50 420.39 319.25 420.19 C 317.79 421.85 316.32 423.51 314.75 425.08 C 313.05 425.89 311.35 426.73 309.61 427.46 C 306.75 427.87 303.89 427.24 301.04 427.11 C 298.26 427.46 295.61 428.96 292.74 428.37 C 286.03 427.66 279.48 425.45 272.65 426.30 C 269.17 423.40 265.93 420.17 263.80 416.13 C 257.25 416.13 250.70 416.11 244.15 416.14 C 241.71 420.87 237.89 424.85 232.72 426.53 C 227.06 425.87 221.67 427.95 216.09 428.44 C 213.21 428.98 210.45 428.09 207.72 427.30 C 204.66 427.06 201.56 427.97 198.52 427.25 C 197.36 426.86 196.21 426.43 195.06 426.02 C 192.34 423.79 190.23 419.65 186.09 420.64 C 175.03 421.86 164.34 416.96 156.10 409.91 C 154.02 408.10 152.22 406.02 150.59 403.81 C 141.19 391.59 139.40 375.11 142.38 360.35 C 144.07 351.66 147.25 343.34 151.34 335.51 C 152.68 333.31 149.94 331.41 149.18 329.46 C 143.47 332.18 137.77 334.93 131.98 337.47 C 131.49 336.65 131.00 335.83 130.50 335.01 C 131.30 333.95 132.09 332.88 132.92 331.84 C 137.63 329.58 142.36 327.34 147.06 325.04 Z" fill="#2c0423" opacity="1.00" stroke="#2c0423" stroke-width="0.25"/>
<path d="M 175.27 317.32 C 184.51 315.56 192.08 309.71 200.01 305.06 C 202.61 309.84 205.29 314.58 207.99 319.30 C 203.98 317.33 201.16 313.84 198.76 310.19 C 193.66 312.70 189.01 316.14 183.67 318.15 C 180.90 319.33 177.84 318.70 175.27 317.32 Z" fill="#a2b0b8" opacity="1.00" stroke="#a2b0b8" stroke-width="0.25"/>
<path d="M 155.41 338.78 C 158.72 341.27 161.62 344.25 164.93 346.75 C 167.31 346.26 169.66 345.68 172.03 345.17 C 173.31 364.79 180.06 383.45 187.42 401.51 C 189.86 406.04 186.44 410.92 187.44 415.75 C 175.65 416.95 164.01 411.39 156.47 402.48 C 161.88 401.59 168.71 402.36 172.07 397.05 C 177.25 390.22 175.15 381.33 173.26 373.73 C 171.41 366.89 170.73 359.40 166.51 353.47 C 163.10 348.97 157.44 347.32 152.39 345.38 C 153.33 343.15 154.37 340.96 155.41 338.78 Z" fill="#fcdfd7" opacity="1.00" stroke="#fcdfd7" stroke-width="0.25"/>
<path d="M 346.15 346.82 C 349.08 344.34 352.01 341.85 354.67 339.08 C 355.70 341.11 356.72 343.14 357.81 345.14 L 356.99 345.43 C 350.51 347.99 342.83 351.02 340.23 358.11 C 337.89 364.92 336.68 372.06 335.07 379.07 C 333.48 385.16 333.96 392.01 337.86 397.17 C 341.43 402.06 348.16 401.71 353.47 403.04 C 345.80 412.32 333.30 417.43 321.32 415.51 C 321.78 410.41 318.74 405.12 321.46 400.33 C 328.95 382.37 335.72 363.75 337.12 344.18 C 340.12 345.10 343.12 346.01 346.15 346.82 Z" fill="#fcdfd7" opacity="1.00" stroke="#fcdfd7" stroke-width="0.25"/>
<path d="M 176.29 343.92 C 176.99 343.66 178.39 343.14 179.09 342.88 C 186.68 353.75 197.57 362.17 209.82 367.18 C 211.26 367.60 213.01 368.50 214.41 367.47 C 217.55 365.25 220.10 362.33 223.16 360.01 C 219.89 366.54 214.38 371.46 208.99 376.23 C 198.97 370.93 191.76 361.90 184.50 353.46 C 182.34 350.89 179.47 349.09 176.55 347.52 C 176.45 346.32 176.36 345.12 176.29 343.92 Z" fill="#fbded7" opacity="1.00" stroke="#fbded7" stroke-width="0.25"/>
<path d="M 327.03 350.03 C 329.01 347.83 330.61 345.30 332.86 343.34 C 332.78 346.01 332.57 348.69 332.01 351.32 C 329.46 351.41 327.13 352.50 325.69 354.65 C 319.15 362.82 311.60 370.22 302.97 376.16 C 294.46 370.98 289.43 362.06 281.96 355.70 C 279.63 357.92 277.25 360.07 274.69 362.02 C 274.04 356.20 278.57 352.21 281.07 347.50 C 286.25 354.66 291.65 361.90 298.76 367.26 C 300.28 368.55 302.17 367.32 303.73 366.77 C 312.43 362.70 320.55 357.18 327.03 350.03 Z" fill="#fbded8" opacity="1.00" stroke="#fbded8" stroke-width="0.25"/>
<path d="M 146.36 375.05 C 146.02 364.85 148.58 354.77 152.39 345.38 C 157.44 347.32 163.10 348.97 166.51 353.47 C 170.73 359.40 171.41 366.89 173.26 373.73 C 175.15 381.33 177.25 390.22 172.07 397.05 C 168.71 402.36 161.88 401.59 156.47 402.48 C 149.76 395.03 146.48 384.97 146.36 375.05 Z" fill="#fefefe" opacity="1.00" stroke="#fefefe" stroke-width="0.25"/>
<path d="M 340.23 358.11 C 342.83 351.02 350.51 347.99 356.99 345.43 L 357.80 345.81 C 362.43 356.63 365.20 368.65 363.63 380.45 C 362.69 388.79 359.25 396.89 353.47 403.04 C 348.16 401.71 341.43 402.06 337.86 397.17 C 333.96 392.01 333.48 385.16 335.07 379.07 C 336.68 372.06 337.89 364.92 340.23 358.11 Z" fill="#fefefd" opacity="1.00" stroke="#fefefd" stroke-width="0.25"/>
<path d="M 386.86 349.87 C 388.88 347.57 391.96 346.79 394.79 345.95 C 394.71 348.80 394.58 351.64 394.63 354.49 C 397.91 353.64 401.16 352.67 404.46 351.84 C 404.24 355.85 402.79 359.96 399.50 362.46 C 394.97 365.80 389.27 367.23 385.00 370.99 C 380.39 375.02 375.20 378.50 369.22 380.07 C 369.27 377.47 369.34 374.88 369.38 372.28 C 373.51 369.60 377.94 366.83 380.31 362.33 C 382.75 358.32 383.61 353.39 386.86 349.87 Z" fill="#fc8958" opacity="1.00" stroke="#fc8958" stroke-width="0.25"/>
<path d="M 176.55 347.52 C 179.47 349.09 182.34 350.89 184.50 353.46 C 191.76 361.90 198.97 370.93 208.99 376.23 C 214.38 371.46 219.89 366.54 223.16 360.01 C 224.17 358.37 225.41 356.90 226.62 355.41 C 228.29 355.47 229.96 355.54 231.64 355.60 C 232.04 357.13 232.46 358.66 232.84 360.20 C 234.61 373.39 235.65 386.71 236.91 399.95 C 238.63 403.80 241.43 407.53 240.55 412.03 C 240.39 417.67 235.67 421.79 230.49 423.07 C 230.19 419.20 230.76 415.33 230.45 411.47 C 229.42 411.39 228.38 411.31 227.35 411.25 C 226.65 415.70 227.17 421.22 222.93 424.11 C 219.35 424.18 215.78 424.23 212.22 424.69 C 207.24 423.26 206.23 417.44 204.46 413.29 C 203.36 413.40 202.27 413.53 201.18 413.67 C 201.61 417.30 203.09 420.66 204.54 423.97 C 201.39 423.96 197.94 423.83 195.62 421.39 C 191.66 418.17 190.47 412.56 192.07 407.82 C 193.64 403.20 190.49 398.94 189.19 394.68 C 183.05 379.57 178.01 363.84 176.55 347.52 Z" fill="#fefefe" opacity="1.00" stroke="#fefefe" stroke-width="0.25"/>
<path d="M 226.62 355.41 C 228.46 352.92 230.32 350.45 232.32 348.10 C 232.75 352.12 232.70 356.17 232.84 360.20 C 232.46 358.66 232.04 357.13 231.64 355.60 C 229.96 355.54 228.29 355.47 226.62 355.41 Z" fill="#fadce1" opacity="1.00" stroke="#fadce1" stroke-width="0.25"/>
<path d="M 325.69 354.65 C 327.13 352.50 329.46 351.41 332.01 351.32 C 329.91 368.67 323.27 384.95 316.76 401.02 C 315.04 404.94 317.41 409.00 317.21 413.01 C 316.46 419.41 310.29 425.05 303.65 423.90 C 304.93 420.47 306.69 417.11 306.81 413.37 C 305.75 413.35 304.69 413.33 303.64 413.33 C 302.12 417.23 300.84 421.71 297.26 424.26 C 294.57 425.31 291.76 423.82 289.01 423.94 C 287.09 423.75 284.55 424.47 283.40 422.42 C 280.64 419.40 281.45 415.10 280.96 411.38 C 280.17 411.36 278.60 411.33 277.81 411.32 C 277.33 415.07 277.61 418.86 277.86 422.63 C 269.77 422.42 265.26 412.91 268.13 405.93 C 269.18 403.28 271.23 400.95 271.28 397.99 C 272.07 385.96 273.36 373.99 274.69 362.02 C 277.25 360.07 279.63 357.92 281.96 355.70 C 289.43 362.06 294.46 370.98 302.97 376.16 C 311.60 370.22 319.15 362.82 325.69 354.65 Z" fill="#fefefe" opacity="1.00" stroke="#fefefe" stroke-width="0.25"/>
<path d="M 237.11 354.96 C 242.16 361.97 248.46 368.22 256.03 372.45 C 261.66 370.45 265.69 365.76 270.35 362.25 C 269.29 374.46 268.00 386.66 267.09 398.89 C 265.37 402.77 263.09 406.59 263.38 411.03 C 257.19 411.26 251.01 410.74 244.82 410.86 C 245.29 405.04 240.22 400.77 240.47 395.04 C 239.66 381.66 237.47 368.37 237.11 354.96 Z" fill="#fddfd5" opacity="1.00" stroke="#fddfd5" stroke-width="0.25"/>
<path d="M 355.58 408.71 C 357.29 407.01 358.93 405.23 360.37 403.29 C 363.91 404.72 367.80 404.58 371.47 405.49 C 376.56 406.76 381.82 407.90 386.36 410.64 C 387.64 411.35 388.61 412.55 388.98 413.99 C 387.80 416.81 384.84 418.17 382.15 419.16 C 368.45 423.90 353.87 424.67 339.62 426.56 C 331.77 427.56 323.88 428.13 316.00 428.58 C 313.80 428.73 311.67 428.13 309.61 427.46 C 311.35 426.73 313.05 425.89 314.75 425.08 C 323.86 426.12 332.79 423.77 341.79 422.84 C 349.19 421.63 357.19 420.25 362.87 414.92 C 360.76 412.49 358.32 410.39 355.58 408.71 Z" fill="#eae0df" opacity="1.00" stroke="#eae0df" stroke-width="0.25"/>
<path d="M 125.92 409.85 C 133.66 406.25 142.26 405.26 150.59 403.81 C 152.22 406.02 154.02 408.10 156.10 409.91 C 153.89 411.00 151.01 411.48 149.60 413.65 C 148.22 415.48 150.59 417.11 151.97 418.01 C 158.56 421.75 166.36 421.91 173.61 423.47 C 180.67 424.99 187.86 425.61 195.06 426.02 C 196.21 426.43 197.36 426.86 198.52 427.25 C 194.67 429.47 190.20 428.29 186.03 428.12 C 178.07 427.64 170.17 426.59 162.25 425.68 C 150.25 424.09 138.02 422.77 126.69 418.28 C 124.87 417.30 122.17 416.38 122.00 413.98 C 121.79 411.70 124.32 410.80 125.92 409.85 Z" fill="#eae0df" opacity="1.00" stroke="#eae0df" stroke-width="0.25"/>
<path d="M 326.02 420.74 C 337.04 421.44 347.82 416.32 355.58 408.71 C 358.32 410.39 360.76 412.49 362.87 414.92 C 357.19 420.25 349.19 421.63 341.79 422.84 C 332.79 423.77 323.86 426.12 314.75 425.08 C 316.32 423.51 317.79 421.85 319.25 420.19 C 321.50 420.39 323.75 420.64 326.02 420.74 Z" fill="#d3c8c8" opacity="1.00" stroke="#d3c8c8" stroke-width="0.25"/>
<path d="M 156.10 409.91 C 164.34 416.96 175.03 421.86 186.09 420.64 C 190.23 419.65 192.34 423.79 195.06 426.02 C 187.86 425.61 180.67 424.99 173.61 423.47 C 166.36 421.91 158.56 421.75 151.97 418.01 C 150.59 417.11 148.22 415.48 149.60 413.65 C 151.01 411.48 153.89 411.00 156.10 409.91 Z" fill="#d3c9c8" opacity="1.00" stroke="#d3c9c8" stroke-width="0.25"/>
<path d="M 244.15 416.14 C 250.70 416.11 257.25 416.13 263.80 416.13 C 265.93 420.17 269.17 423.40 272.65 426.30 C 267.35 427.06 262.29 424.83 257.02 424.83 C 251.93 424.69 246.79 424.79 241.80 425.94 C 238.83 426.65 235.76 426.76 232.72 426.53 C 237.89 424.85 241.71 420.87 244.15 416.14 Z" fill="#d4caca" opacity="1.00" stroke="#d4caca" stroke-width="0.25"/>
<path d="M 241.80 425.94 C 246.79 424.79 251.93 424.69 257.02 424.83 C 262.29 424.83 267.35 427.06 272.65 426.30 C 279.48 425.45 286.03 427.66 292.74 428.37 C 289.63 430.71 285.61 430.08 281.97 430.23 C 269.28 430.06 256.60 431.30 243.91 430.47 C 234.65 429.78 225.13 431.10 216.09 428.44 C 221.67 427.95 227.06 425.87 232.72 426.53 C 235.76 426.76 238.83 426.65 241.80 425.94 Z" fill="#eae0e0" opacity="1.00" stroke="#eae0e0" stroke-width="0.25"/>
</svg>